# WaveFront *.obj file (generated by Cinema 4D)

mtllib ./Computer_Desk.mtl

v 150.4949951171875 75.56500244140625 0
v 0 72.38999938964844 0
v 150.4949951171875 72.38999938964844 0
v 150.4949951171875 75.56500244140625 -72.38999938964844
v 150.4949951171875 72.38999938964844 -74.93000030517578
v 150.4949951171875 75.44449615478516 -72.72955322265625
v 150.4949951171875 75.10427093505859 -73.36374664306641
v 150.4949951171875 75.29039764404297 -73.05524444580078
v 150.4949951171875 74.64382171630859 -73.9168701171875
v 150.4949951171875 73.09929656982422 -74.80812072753906
v 0 75.44449615478516 -72.72955322265625
v 0 72.74772644042969 -74.88697052001953
v 150.4949951171875 72.74772644042969 -74.88697052001953
v 0 73.44113159179688 -74.69425964355469
v 150.4949951171875 73.44113159179688 -74.69425964355469
v 0 73.76976013183594 -74.54653167724609
v 150.4949951171875 73.76976013183594 -74.54653167724609
v 150.4949951171875 74.08184051513672 -74.366455078125
v 0 74.37418365478516 -74.15585327148438
v 0 74.08184051513672 -74.366455078125
v 150.4949951171875 74.37418365478516 -74.15585327148438
v 0 74.64382171630859 -73.9168701171875
v 150.4949951171875 74.88801574707031 -73.65193176269531
v 0 75.10427093505859 -73.36374664306641
v 2.53999996185303 72.38999938964844 -5.07999992370605
v 7.61999988555908 72.38999938964844 -25.39999961853027
v 7.61999988555908 72.38999938964844 -64.76999664306641
v 142.875 72.38999938964844 -64.76999664306641
v 142.875 69.84999847412109 -49.52999877929688
v 146.05000305175781 69.84999847412109 -49.52999877929688
v 142.875 69.84999847412109 -20.31999969482422
v 142.875 69.84999847412109 -5.07999992370605
v 146.05000305175781 69.84999847412109 -20.31999969482422
v 147.95500183105469 69.84999847412109 -64.76999664306641
v 147.95500183105469 69.84999847412109 -5.07999992370605
v 147.95500183105469 72.38999938964844 -5.07999992370605
v 142.875 69.84999847412109 -64.76999664306641
v 147.95500183105469 72.38999938964844 -64.76999664306641
v 2.53999996185303 69.84999847412109 -5.07999992370605
v 7.61999988555908 69.84999847412109 -5.07999992370605
v 4.44500017166138 69.84999847412109 -49.52999877929688
v 7.61999988555908 72.38999938964844 -5.07999992370605
v 7.61999988555908 72.38999938964844 -24.1299991607666
v 7.61999988555908 69.84999847412109 -64.76999664306641
v 2.53999996185303 69.84999847412109 -64.76999664306641
v 2.53999996185303 72.38999938964844 -64.76999664306641
v 4.44500017166138 69.84999847412109 -20.31999969482422
v 146.05000305175781 2.53999996185303 -49.52999877929688
v 142.24000549316406 2.53999996185303 -69.84999847412109
v 142.24000549316406 2.53999996185303 -5.07999992370605
v 146.05000305175781 2.53999996185303 -20.31999969482422
v 146.68499755859375 0 -5.07999992370605
v 142.24000549316406 0 -72.38999938964844
v 142.24000549316406 2.48770236968994 -70.16926574707031
v 142.24000549316406 2.27697443962097 -70.77993774414062
v 142.24000549316406 1.71901285648346 -71.56901550292969
v 142.24000549316406 0.63057547807693 -72.24964904785156
v 142.24000549316406 2.39965081214905 -70.48057556152344
v 142.24000549316406 2.12124538421631 -71.06350708007812
v 142.24000549316406 1.93446016311646 -71.32766723632812
v 142.24000549316406 1.47766518592834 -71.78446197509766
v 142.24000549316406 1.21351087093353 -71.97124481201172
v 142.24000549316406 0.92993599176407 -72.12697601318359
v 142.24000549316406 0.31926664710045 -72.33769989013672
v 146.68499755859375 0.63057547807693 -72.24964904785156
v 146.68499755859375 0.31926664710045 -72.33769989013672
v 142.24000549316406 0 -5.07999992370605
v 146.68499755859375 2.53999996185303 -5.07999992370605
v 146.68499755859375 0 -69.84999847412109
v 146.68499755859375 2.53999996185303 -69.84999847412109
v 146.68499755859375 2.48770236968994 -70.16926574707031
v 146.68499755859375 2.39965081214905 -70.48057556152344
v 146.68499755859375 2.12124538421631 -71.06350708007812
v 146.68499755859375 2.27697443962097 -70.77993774414062
v 146.68499755859375 1.93446016311646 -71.32766723632812
v 146.68499755859375 1.71901285648346 -71.56901550292969
v 146.68499755859375 1.21351087093353 -71.97124481201172
v 146.68499755859375 1.47766518592834 -71.78446197509766
v 146.68499755859375 0 -72.38999938964844
v 146.68499755859375 0.92993599176407 -72.12697601318359
v 3.80999994277954 2.39965081214905 -70.48057556152344
v 3.80999994277954 2.53999996185303 -69.84999847412109
v 4.44500017166138 2.53999996185303 -20.31999969482422
v 8.25500011444092 2.53999996185303 -5.07999992370605
v 4.44500017166138 2.53999996185303 -49.52999877929688
v 3.80999994277954 2.27697443962097 -70.77993774414062
v 3.80999994277954 2.12124538421631 -71.06350708007812
v 3.80999994277954 1.71901285648346 -71.56901550292969
v 3.80999994277954 1.47766518592834 -71.78446197509766
v 3.80999994277954 0 -72.38999938964844
v 3.80999994277954 0.92993599176407 -72.12697601318359
v 3.80999994277954 2.53999996185303 -5.07999992370605
v 3.80999994277954 0 -5.07999992370605
v 8.25500011444092 0 -5.07999992370605
v 8.25500011444092 0.92993599176407 -72.12697601318359
v 3.80999994277954 2.48770236968994 -70.16926574707031
v 3.80999994277954 1.93446016311646 -71.32766723632812
v 8.25500011444092 1.93446016311646 -71.32766723632812
v 8.25500011444092 2.27697443962097 -70.77993774414062
v 3.80999994277954 1.21351087093353 -71.97124481201172
v 8.25500011444092 1.21351087093353 -71.97124481201172
v 8.25500011444092 2.12124538421631 -71.06350708007812
v 8.25500011444092 1.71901285648346 -71.56901550292969
v 3.80999994277954 0.63057547807693 -72.24964904785156
v 3.80999994277954 0.31926664710045 -72.33769989013672
v 8.25500011444092 0.31926664710045 -72.33769989013672
v 8.25500011444092 0 -69.84999847412109
v 8.25500011444092 2.53999996185303 -69.84999847412109
v 8.25500011444092 2.48770236968994 -70.16926574707031
v 8.25500011444092 2.39965081214905 -70.48057556152344
v 8.25500011444092 1.47766518592834 -71.78446197509766
v 8.25500011444092 0.63057547807693 -72.24964904785156
v 8.25500011444092 0 -72.38999938964844
v 142.875 72.38999938964844 -25.39999961853027
v 142.875 35.56000137329102 -25.39999961853027
v 7.61999988555908 35.56000137329102 -25.39999961853027
v 7.61999988555908 35.56000137329102 -24.1299991607666
v 142.875 69.84999847412109 -25.39999961853027
v 142.875 2.53999996185303 -20.31999969482422
v 142.875 2.53999996185303 -49.52999877929688
v 142.875 35.56000137329102 -24.1299991607666
v 142.875 72.38999938964844 -5.07999992370605
v 142.875 72.38999938964844 -24.1299991607666
v 142.875 69.84999847412109 -24.1299991607666
v 0 75.56500244140625 0
v 0 75.56500244140625 -72.38999938964844
v 0 75.29039764404297 -73.05524444580078
v 0 72.38999938964844 -74.93000030517578
v 0 74.88801574707031 -73.65193176269531
v 0 73.09929656982422 -74.80812072753906
v 7.61999988555908 2.53999996185303 -20.31999969482422
v 7.61999988555908 69.84999847412109 -20.31999969482422
v 7.61999988555908 69.84999847412109 -49.52999877929688
v 7.61999988555908 2.53999996185303 -49.52999877929688
# 134 vertices

vn 0 0 1
vn 1 0 0
vn 1 0 0
vn 1 0 0
vn 0 0 0
vn 0 0 -1
vn 0 0 -1
vn 0 0 -1
vn 1 0 0
vn 1 0 0
vn 0.00000001493342 0 -1
vn 0 1 0
vn 1 0 0
vn 0 1 0
vn 0 0.98549753427506 -0.16968981921673
vn 0 0.92434501647949 -0.38155773282051
vn 0 0.16934967041016 -0.98555600643158
vn 0 0.11942576617002 -0.99284315109253
vn 0 0.26777100563049 -0.96348255872726
vn 0 0.36347541213036 -0.93160378932953
vn 0 0.45547562837601 -0.89024823904037
vn 0 0.5428409576416 -0.83983552455902
vn 0 0.62469506263733 -0.78086882829666
vn 0 0.70018756389618 -0.71395897865295
vn 0 0.76855438947678 -0.63978451490402
vn 0 0.8290947675705 -0.55910807847977
vn 0 0.88120269775391 -0.47273859381676
vn 0 -1 0
vn 0 0 -1
vn 0 -1 0
vn 0.96858674287796 0 -0.24867594242096
vn -1 0 0
vn 0 0 1
vn 0 1 0
vn -0.00000000000091 1 0
vn 0 1 0
vn 1 0 0
vn nan nan nan
vn 0 -1 0
vn 0 0 -1
vn 0 0.00000222039125 1
vn 0.00000004364864 0 -1
vn 0 -0.99982470273972 0.01872421614826
vn nan nan nan
vn -0.00731743918732 0 0.9999732375145
vn -1 0 0
vn 1 0 0
vn nan nan nan
vn 0 0 1
vn 0.08517783880234 -0.99636578559875 0
vn 0 1 -0.00004464698213
vn 0 0 -1
vn 1 0 0
vn 0 -0.99943035840988 0.03374807164073
vn 0.99999994039536 0.00039912859211 0
vn nan nan nan
vn 0 1 0
vn -0.0579042956233 -0.96866101026535 0.24154292047024
vn -1 0 0
vn -1 0 -0.00000000000001
vn 0 -1 0.00008182058809
vn nan nan nan
vn 0 -1 0
vn -0.99166655540466 -0.12883101403713 0
vn -1 0 0
vn 0 0.99917900562286 -0.04051270335913
vn 0 1 0
vn 0 1 0
vn 1 0 0
vn nan nan nan
vn 0 0 -1
vn 0.00000000016017 0 1
vn 0 1 0
vn 0 -0.00000000000001 1
vn 0 1 0
vn 1 0.0000362068422 0
vn -0.00000000140307 0 1
vn -1 0 0
vn nan nan nan
vn 0 -1 0
vn 0 0 1
vn 1 0 0
vn 0 -0.00000000000002 -1
vn 0 1 0
vn -1 0 0
vn -0.00000000000034 -1 -0.00000000476694
vn 1 0 0
vn -0.00000000000007 -1 -0.0000000002922
vn -0.01068673562258 -0.99994289875031 0
vn 0 0.97611457109451 -0.21725627779961
vn 0 0.94530075788498 -0.32620003819466
vn 0 0.90236759185791 -0.43096727132797
vn 0 0.84787118434906 -0.53020232915878
vn 0 0.78250759840012 -0.62264102697372
vn 0 0.70710653066635 -0.70710700750351
vn 0 0.6226424574852 -0.78250646591187
vn 0 0.53020316362381 -0.84787064790726
vn 0 0.43096277117729 -0.90236973762512
vn 0 0.32619586586952 -0.94530218839645
vn 0 0.21725861728191 -0.97611409425735
vn 0 0.16165673732758 -0.98684704303741
vn 0 -1 0
vn 0 -1 0
vn 0 -1 0
vn 0 1 -0.0000000000001
vn 0 0 -1
vn 0 0 1
vn -0.00000000008896 -1 0
vn 0.00000000000003 -1 0
vn -1 0 0
vn 0 -1 0.0000000010833
vn -1 0 0
vn 0 1 0
vn -0.99999123811722 -0.00418035499752 0
vn 0 -1 0
vn 0 0 1
vn 0 0 1
vn 1 0 0.00000000280947
vn 1 -0.00000000017618 0
vn 0 -1 0
vn -0.0000016374546 1 0
vn -1 0.00000000000011 0
vn 0 0.0000017122768 1
vn -1 0 0
vn 0 -1 0.00000150524511
vn nan nan nan
vn nan nan nan
vn 0 0 -1
vn 0 0 1
vn 0 0 -1
vn nan nan nan
vn 0 1 0
vn 0 -1 0.00000000000001
vn 1 0.00000814222494 0
vn 0 0.00000000196625 -1
vn nan nan nan
vn 1 0 0.00000010687433
vn 0 0 -1
vn 0 -1 0
vn 0 0 -1
vn 0 0.43096274137497 -0.90236973762512
vn 0 0.32619586586952 -0.94530218839645
vn 0 0.84787112474442 -0.53020232915878
vn 0 0.53020316362381 -0.84787064790726
vn 0 -1 0
vn 0 0 -1
vn 1 0 0
vn -1 0 0
vn 0 0 1
vn 0 0 -1
vn 0 1 0
vn 0 -1 0
vn 1 0 0
vn 0 -1 0
vn -1 0 0
vn 0.00000359351566 -1 0
vn -1 0 0
vn 0 -1 0
vn 0 0 -1
vn -1 0 0
vn 1 0 0
vn -1 0 0
vn 0 1 0
vn 0 -1 0
vn 0 0 -1
vn 0 0 1
vn 0 0 1
vn -1 0 0
vn 0.99999105930328 0 -0.00422667106614
vn 0 1 0
vn -0.0796387642622 0 0.99682378768921
vn 0 0 1
vn 0 1 0
vn 0.99999958276749 0.00088425469585 0
vn 0 0 1
vn -0.0001292147208 0.99976164102554 0.02183198556304
vn 1 0 0
vn 1 0 -0.0000000000043
vn -1 0.00003861917867 0
vn -1 0 0
vn 0.00000000000027 -1 -0.00000472350985
vn 0 0.00007965873374 -1
vn 1 0 0
vn -1 0 0
vn -0.00000008372357 -0.99408632516861 0.10859272629023
vn 1 -0.00000077322142 0
vn 0 -1 0
vn 0.79422271251678 -0.60762673616409 0
vn 1 0 0
# 189 normals

vt 0.82291668653488 0.41319441795349 0
vt 0.82291668653488 0.39583337306976 0
vt 0 0.39583337306976 0
vt 0 0.41319441795349 0
vt 0.40972220897675 0.39583337306976 0
vt 0.39583334326744 0.41319441795349 0
vt 0.39769005775452 0.41253554821014 0
vt 0.39947092533112 0.4116929769516 0
vt 0.40115785598755 0.41067516803741 0
vt 0.40273368358612 0.40949261188507 0
vt 0.40418234467506 0.40815734863281 0
vt 0.40548911690712 0.40668296813965 0
vt 0.4066407084465 0.40508449077606 0
vt 0.40762540698051 0.40337800979614 0
vt 0.40843316912651 0.40158104896545 0
vt 0.40905579924583 0.3997118473053 0
vt 0.40948694944382 0.397789478302 0
vt 0.02365202829242 0 0
vt 0.02168102562428 0 0
vt 0.02168102562428 0.82291668653488 0
vt 0.02365202829242 0.82291668653488 0
vt 0.00197100220248 0 0
vt 0 0 0
vt 0 0.82291668653488 0
vt 0.00197100220248 0.82291668653488 0
vt 0.00394200440496 0 0
vt 0.00394200440496 0.82291668653488 0
vt 0.0059130070731 0 0
vt 0.0059130070731 0.82291668653488 0
vt 0.00788400880992 0 0
vt 0.00788400880992 0.82291668653488 0
vt 0.00985501147807 0 0
vt 0.00985501147807 0.82291668653488 0
vt 0.01182601414621 0 0
vt 0.01182601414621 0.82291668653488 0
vt 0.01379701588303 0 0
vt 0.01379701588303 0.82291668653488 0
vt 0.01576801761985 0 0
vt 0.01576801761985 0.82291668653488 0
vt 0.01773902028799 0 0
vt 0.01773902028799 0.82291668653488 0
vt 0.01971002295613 0 0
vt 0.01971002295613 0.82291668653488 0
vt -0.04166666790843 0.13194441795349 0
vt -0.04166666790843 0.02777779102325 0
vt -0.78125 0.13194441795349 0
vt 0 0 0
vt -0.01388888899237 0.35416674613953 0
vt 0 0.40972220897675 0
vt -0.82291668653488 0.40972220897675 0
vt -0.04166666790843 0.35416674613953 0
vt -0.78125 0.35416674613953 0
vt -0.80902779102325 0.35416674613953 0
vt -0.80902779102325 0.02777779102325 0
vt -0.82291668653488 0 0
vt -0.01388888899237 0.02777779102325 0
vt -0.78125 0.02777779102325 0
vt -0.04166666790843 0.13888895511627 0
vt -0.78125 0.13888895511627 0
vt 0.82291668653488 0 0
vt -0.39583334326744 0.41319441795349 0
vt -0.40972220897675 0.39583337306976 0
vt -0.39769005775452 0.41253554821014 0
vt -0.39947092533112 0.4116929769516 0
vt -0.40115785598755 0.41067516803741 0
vt -0.40273368358612 0.40949261188507 0
vt -0.40418234467506 0.40815734863281 0
vt -0.40548911690712 0.40668296813965 0
vt -0.4066407084465 0.40508449077606 0
vt -0.40762540698051 0.40337800979614 0
vt -0.40843316912651 0.40158104896545 0
vt -0.40905579924583 0.3997118473053 0
vt -0.40948694944382 0.397789478302 0
# 73 texture coordinates

o Computer_Desk
usemtl [Wood_Cherry_Original]
f 125/4/1 2/3/1 3/2/1 1/1/1
f 5/5/2 1/4/2 3/3/2
f 1/4/2 5/5/2 4/6/2
f 4/6/2 5/5/2 6/7/2
f 6/7/2 5/5/2 8/8/2
f 8/8/2 5/5/2 7/9/2
f 7/9/2 5/5/2 23/10/2
f 23/10/2 5/5/2 9/11/2
f 9/11/2 5/5/2 21/12/2
f 21/12/2 5/5/2 18/13/2
f 18/13/2 5/5/2 17/14/2
f 17/14/2 5/5/2 15/15/2
f 15/15/2 5/5/2 10/16/2
f 10/16/2 5/5/2 13/17/2
f 4/21/15 6/20/16 11/19/16 126/18/15
f 13/25/17 5/24/18 128/23/18 12/22/17
f 10/27/19 13/25/17 12/22/17 130/26/19
f 15/29/20 10/27/19 130/26/19 14/28/20
f 17/31/21 15/29/20 14/28/20 16/30/21
f 18/33/22 17/31/21 16/30/21 20/32/22
f 21/35/23 18/33/22 20/32/22 19/34/23
f 9/37/24 21/35/23 19/34/23 22/36/24
f 23/39/25 9/37/24 22/36/24 129/38/25
f 7/41/26 23/39/25 129/38/25 24/40/26
f 8/43/27 7/41/26 24/40/26 127/42/27
f 6/20/16 8/43/27 127/42/27 11/19/16
f 123/46/28 42/45/28 43/44/28
f 128/49/28 46/48/28 2/47/28
f 46/48/28 128/49/28 5/50/28
f 46/48/28 5/50/28 27/51/28
f 27/51/28 5/50/28 28/52/28
f 28/52/28 5/50/28 38/53/28
f 38/53/28 5/50/28 36/54/28
f 2/47/28 25/56/28 3/55/28
f 25/56/28 2/47/28 46/48/28
f 3/55/28 25/56/28 42/45/28
f 3/55/28 42/45/28 122/57/39
f 122/57/39 42/45/28 123/46/28
f 3/55/28 122/57/39 36/54/28
f 3/55/28 36/54/28 5/50/28
f 27/51/28 114/59/28 26/58/28
f 114/59/28 27/51/28 28/52/28
f 1/60/67 4/2/15 126/3/15 125/47/67
f 126/61/65 2/3/65 125/4/65
f 2/3/65 126/61/65 128/62/65
f 128/62/65 126/61/65 11/63/78
f 128/62/65 11/63/78 127/64/78
f 128/62/65 127/64/78 24/65/78
f 128/62/65 24/65/78 129/66/78
f 128/62/65 129/66/78 22/67/78
f 128/62/65 22/67/78 19/68/78
f 128/62/65 19/68/78 20/69/78
f 128/62/65 20/69/78 16/70/65
f 128/62/65 16/70/65 14/71/65
f 128/62/65 14/71/65 130/72/65
f 128/62/65 130/72/65 12/73/65

usemtl [Color_009]
f 34/47/28 29/47/28 37/47/28
f 29/47/28 34/47/28 30/47/28
f 30/47/28 34/47/28 33/47/28
f 33/47/28 32/47/28 31/47/28
f 32/47/28 33/47/28 35/47/28
f 35/47/28 33/47/28 34/47/28
f 38/47/2 36/47/2 35/47/2 34/47/2
f 36/47/1 122/47/1 32/47/1 35/47/1
f 28/47/52 38/47/52 34/47/52 37/47/52
f 45/47/28 41/47/28 39/47/28
f 41/47/28 45/47/28 44/47/28
f 41/47/28 44/47/28 133/47/28
f 39/47/28 47/47/28 40/47/28
f 47/47/28 39/47/28 41/47/28
f 40/47/28 47/47/28 132/47/28
f 132/47/2 42/47/2 40/47/2
f 42/47/2 132/47/2 43/47/2
f 43/47/2 132/47/2 133/47/2
f 43/47/2 133/47/2 26/47/2
f 26/47/2 133/47/2 27/47/2
f 27/47/2 133/47/2 44/47/2
f 42/47/1 25/47/1 39/47/1 40/47/1
f 25/47/65 46/47/65 45/47/65 39/47/65
f 46/47/52 27/47/52 44/47/52 45/47/52
f 133/47/28 132/47/28 47/47/28 41/47/28
f 31/47/1 119/47/1 51/47/1 33/47/1
f 51/47/2 48/47/2 30/47/2 33/47/2
f 30/47/52 48/47/52 120/47/52 29/47/52
f 83/47/1 131/47/1 132/47/1 47/47/1
f 47/47/65 41/47/65 85/47/65 83/47/65
f 134/47/52 85/47/52 41/47/52 133/47/52
f 50/47/67 119/47/67 49/47/66
f 119/47/67 50/47/67 68/47/67
f 119/47/67 68/47/67 51/47/67
f 51/47/67 68/47/67 48/47/67
f 49/47/66 120/47/67 70/47/66
f 120/47/67 49/47/66 119/47/67
f 70/47/66 120/47/67 48/47/67
f 70/47/66 48/47/67 68/47/67
f 67/47/1 52/47/1 68/47/1 50/47/1
f 49/47/65 67/47/65 50/47/65
f 67/47/65 49/47/65 53/47/65
f 53/47/65 49/47/65 54/47/78
f 53/47/65 54/47/78 58/47/78
f 53/47/65 58/47/78 55/47/78
f 53/47/65 55/47/78 59/47/78
f 53/47/65 59/47/78 60/47/78
f 53/47/65 60/47/78 56/47/78
f 53/47/65 56/47/78 61/47/78
f 53/47/65 61/47/78 62/47/65
f 53/47/65 62/47/65 63/47/65
f 53/47/65 63/47/65 57/47/65
f 53/47/65 57/47/65 64/47/65
f 70/47/66 71/47/90 54/47/90 49/47/66
f 71/47/90 72/47/91 58/47/91 54/47/90
f 72/47/91 74/47/92 55/47/92 58/47/91
f 74/47/92 73/47/93 59/47/93 55/47/92
f 73/47/93 75/47/94 60/47/94 59/47/93
f 75/47/94 76/47/95 56/47/95 60/47/94
f 76/47/95 78/47/96 61/47/96 56/47/95
f 78/47/96 77/47/97 62/47/97 61/47/96
f 77/47/97 80/47/98 63/47/98 62/47/97
f 80/47/98 65/47/99 57/47/99 63/47/98
f 65/47/99 66/47/100 64/47/100 57/47/99
f 66/47/100 79/47/101 53/47/101 64/47/100
f 79/47/28 67/47/28 53/47/28
f 67/47/28 79/47/28 52/47/28
f 69/47/2 68/47/2 52/47/2
f 68/47/2 69/47/2 70/47/2
f 70/47/2 69/47/2 79/47/2
f 70/47/2 79/47/2 71/47/2
f 71/47/2 79/47/2 72/47/2
f 72/47/2 79/47/2 74/47/2
f 74/47/2 79/47/2 73/47/2
f 73/47/2 79/47/2 75/47/2
f 75/47/2 79/47/2 76/47/2
f 76/47/2 79/47/2 78/47/2
f 78/47/2 79/47/2 77/47/2
f 77/47/2 79/47/2 80/47/2
f 80/47/2 79/47/2 65/47/2
f 65/47/2 79/47/2 66/47/2
f 110/47/91 99/47/92 86/47/92 81/47/91
f 92/47/67 83/47/67 82/47/66
f 83/47/67 92/47/67 84/47/67
f 83/47/67 84/47/67 131/47/67
f 131/47/67 84/47/67 134/47/67
f 82/47/66 85/47/67 108/47/66
f 85/47/67 82/47/66 83/47/67
f 108/47/66 85/47/67 134/47/67
f 108/47/66 134/47/67 84/47/67
f 113/47/28 93/47/28 90/47/28
f 93/47/28 113/47/28 94/47/28
f 82/47/65 93/47/65 92/47/65
f 93/47/65 82/47/65 90/47/65
f 90/47/65 82/47/65 96/47/78
f 90/47/65 96/47/78 81/47/78
f 90/47/65 81/47/78 86/47/78
f 90/47/65 86/47/78 87/47/78
f 90/47/65 87/47/78 97/47/78
f 90/47/65 97/47/78 88/47/78
f 90/47/65 88/47/78 89/47/78
f 90/47/65 89/47/78 100/47/65
f 90/47/65 100/47/65 91/47/65
f 90/47/65 91/47/65 104/47/65
f 90/47/65 104/47/65 105/47/65
f 93/47/1 94/47/1 84/47/1 92/47/1
f 95/47/141 112/47/142 104/47/142 91/47/141
f 109/47/90 110/47/91 81/47/91 96/47/90
f 98/47/94 103/47/95 88/47/95 97/47/94
f 99/47/92 102/47/143 87/47/143 86/47/92
f 101/47/144 95/47/141 91/47/141 100/47/144
f 106/47/100 113/47/101 90/47/101 105/47/100
f 102/47/143 98/47/94 97/47/94 87/47/143
f 111/47/96 101/47/144 100/47/144 89/47/96
f 103/47/95 111/47/96 89/47/96 88/47/95
f 112/47/142 106/47/100 105/47/100 104/47/142
f 107/47/2 84/47/2 94/47/2
f 84/47/2 107/47/2 108/47/2
f 108/47/2 107/47/2 113/47/2
f 108/47/2 113/47/2 109/47/2
f 109/47/2 113/47/2 110/47/2
f 110/47/2 113/47/2 99/47/2
f 99/47/2 113/47/2 102/47/2
f 102/47/2 113/47/2 98/47/2
f 98/47/2 113/47/2 103/47/2
f 103/47/2 113/47/2 111/47/2
f 111/47/2 113/47/2 101/47/2
f 101/47/2 113/47/2 95/47/2
f 95/47/2 113/47/2 112/47/2
f 112/47/2 113/47/2 106/47/2
f 108/47/66 109/47/90 96/47/90 82/47/66
f 28/47/65 118/47/65 114/47/65
f 118/47/65 28/47/65 29/47/65
f 29/47/65 28/47/65 37/47/65
f 26/47/52 115/47/52 116/47/52
f 115/47/52 26/47/52 118/47/52
f 118/47/52 26/47/52 114/47/52
f 115/47/28 121/47/28 117/47/28 116/47/28
f 124/47/1 117/47/1 121/47/1
f 117/47/1 124/47/1 43/47/1
f 43/47/1 124/47/1 123/47/1
f 29/47/65 115/47/65 118/47/65
f 124/47/65 119/47/65 31/47/65
f 119/47/65 124/47/65 121/47/65
f 119/47/65 121/47/65 120/47/65
f 120/47/65 121/47/65 115/47/65
f 120/47/65 115/47/65 29/47/65
f 123/47/65 32/47/65 122/47/65
f 32/47/65 123/47/65 31/47/65
f 31/47/65 123/47/65 124/47/65
f 134/47/2 133/47/2 132/47/2 131/47/2

usemtl default
f 26/47/65 116/47/65 117/47/65 43/47/65

